<?xml version="1.0" standalone="no"?>
<!DOCTYPE svg PUBLIC "-//W3C//DTD SVG 20010904//EN"
 "http://www.w3.org/TR/2001/REC-SVG-20010904/DTD/svg10.dtd">
<svg version="1.0" xmlns="http://www.w3.org/2000/svg"
 width="512.000000pt" height="512.000000pt" viewBox="0 0 512.000000 512.000000"
 preserveAspectRatio="xMidYMid meet">

<g transform="translate(0.000000,512.000000) scale(0.100000,-0.100000)"
fill="#472B74" stroke="none">
<path d="M1050 5021 c-164 -35 -278 -98 -386 -214 -114 -121 -173 -262 -181
-432 -18 -348 174 -732 557 -1115 217 -217 424 -372 640 -478 138 -68 168 -71
285 -24 219 87 538 324 748 557 455 504 600 1010 395 1375 -17 30 -70 93 -117
140 -136 135 -283 196 -501 207 -226 12 -422 -62 -588 -221 l-63 -60 -57 56
c-196 192 -458 267 -732 209z m320 -155 c137 -29 266 -111 344 -219 87 -119
84 -117 125 -117 42 0 56 12 113 101 36 56 112 127 178 167 19 11 71 33 115
48 70 24 95 28 200 28 130 1 210 -15 300 -59 115 -56 216 -170 262 -295 70
-190 6 -513 -150 -759 l-34 -54 -27 39 c-22 32 -26 50 -26 105 l0 67 84 48
c115 64 115 61 80 270 -36 217 -36 218 -211 274 l-126 40 -251 0 -252 0 -115
-39 c-138 -46 -154 -54 -176 -87 -9 -15 -28 -97 -44 -192 -23 -137 -26 -170
-16 -191 7 -15 46 -45 95 -74 l82 -48 0 -74 c0 -66 -6 -89 -55 -213 l-55 -140
0 -297 0 -296 -22 7 c-13 3 -35 13 -50 21 l-28 14 0 228 0 229 -51 97 -51 98
48 101 49 101 0 263 0 264 -24 19 c-39 32 -78 24 -161 -31 l-75 -50 -165 0
-165 0 -75 50 c-83 55 -122 63 -161 31 -24 -19 -24 -21 -29 -273 -5 -238 -9
-278 -30 -278 -19 0 -121 228 -145 324 -60 235 -38 399 72 544 109 143 273
219 478 221 44 0 109 -6 145 -13z m1296 -506 l91 -31 17 -105 c10 -58 15 -108
13 -111 -3 -3 -38 -24 -79 -46 -40 -23 -78 -53 -86 -67 -9 -18 -12 -62 -10
-150 l3 -125 53 -78 54 -79 -33 -41 c-157 -199 -381 -394 -609 -531 -123 -74
-110 -97 -110 206 l0 264 55 137 55 137 0 123 c0 146 -2 150 -103 208 -40 23
-73 43 -74 43 -7 5 32 203 41 213 6 6 47 23 91 37 76 24 92 25 310 26 l230 0
91 -30z m-1622 -245 c16 -12 61 -15 236 -15 175 0 220 3 236 15 10 8 23 15 28
15 5 0 7 -70 4 -157 l-5 -158 -51 -102 c-29 -57 -52 -110 -52 -118 0 -8 25
-65 55 -125 l55 -110 0 -155 c0 -85 -4 -155 -9 -155 -4 0 -39 23 -77 52 -175
131 -351 300 -483 461 l-63 78 46 69 46 70 0 175 c0 96 3 175 8 175 4 0 16 -7
26 -15z"/>
<path d="M2155 4140 c-22 -24 -13 -66 15 -75 52 -16 90 36 55 75 -10 11 -26
20 -35 20 -9 0 -25 -9 -35 -20z"/>
<path d="M2486 4147 c-22 -16 -18 -65 5 -80 23 -14 67 0 74 24 8 25 -19 69
-43 69 -10 0 -26 -6 -36 -13z"/>
<path d="M2307 3922 c-34 -38 -14 -72 43 -72 57 0 80 39 42 73 -24 22 -65 21
-85 -1z"/>
<path d="M1122 3984 c-41 -29 -23 -84 28 -84 32 0 50 17 50 46 0 20 -32 54
-50 54 -3 0 -16 -7 -28 -16z"/>
<path d="M1388 3992 c-22 -4 -35 -49 -21 -71 16 -25 59 -26 76 0 27 38 -7 82
-55 71z"/>
<path d="M3520 2720 l0 -160 80 0 80 0 0 160 0 160 -80 0 -80 0 0 -160z"/>
<path d="M3197 2719 c-37 -26 -56 -46 -53 -55 8 -20 146 -224 152 -224 3 0 32
18 65 41 39 26 59 46 55 55 -10 25 -146 224 -154 223 -4 0 -33 -18 -65 -40z"/>
<path d="M3860 2655 c-39 -58 -73 -112 -76 -119 -4 -9 16 -29 55 -55 33 -23
62 -41 65 -41 6 0 144 204 152 224 4 9 -16 29 -55 55 -33 23 -62 41 -65 41 -3
0 -37 -47 -76 -105z"/>
<path d="M505 2455 l-25 -24 0 -991 0 -991 25 -24 c24 -24 28 -25 183 -25
l158 0 24 -57 c32 -78 105 -153 183 -189 53 -25 75 -29 147 -29 73 0 94 4 148
29 77 36 150 112 183 191 l23 55 818 0 c771 0 819 -1 825 -17 33 -101 100
-181 186 -223 120 -59 253 -49 364 27 56 38 127 131 138 183 l6 29 324 3 c309
3 325 4 351 24 15 11 37 33 48 48 20 26 21 42 24 337 2 191 -1 323 -8 347 -20
77 -57 111 -241 225 l-175 107 -42 218 c-49 247 -66 287 -145 336 -36 22 -62
30 -116 34 l-69 5 -4 107 c-3 100 -5 109 -32 144 -44 58 -79 68 -222 64 -105
-3 -127 -6 -150 -24 -60 -44 -69 -67 -72 -185 l-4 -109 -119 0 -119 0 0 175
c0 173 0 176 -25 200 l-24 25 -1271 0 -1271 0 -24 -25z m2455 -1015 l0 -880
-703 0 -703 0 -24 58 c-32 77 -105 152 -183 188 -53 25 -75 29 -147 29 -72 0
-94 -4 -147 -29 -78 -36 -151 -111 -183 -188 l-24 -58 -103 0 -103 0 0 880 0
880 1160 0 1160 0 0 -880z m720 720 l0 -80 -80 0 -80 0 0 80 0 80 80 0 80 0 0
-80z m270 -258 c19 -15 30 -56 70 -255 32 -160 53 -244 65 -257 9 -10 92 -65
184 -121 91 -56 176 -112 189 -126 15 -16 22 -37 22 -64 l0 -39 -135 0 c-131
0 -137 -1 -160 -25 -24 -23 -25 -28 -25 -175 0 -147 1 -152 25 -175 23 -24 29
-25 160 -25 l135 0 0 -40 0 -40 -293 0 -292 0 -17 48 c-52 145 -207 242 -365
229 -129 -10 -258 -104 -301 -220 -18 -48 -22 -52 -56 -55 l-36 -3 0 680 0
681 404 0 c373 0 405 -1 426 -18z m530 -1062 l0 -40 -80 0 -80 0 0 40 0 40 80
0 80 0 0 -40z m-3166 -197 c55 -39 81 -93 81 -168 0 -113 -77 -190 -189 -190
-142 0 -233 118 -197 253 14 51 75 117 123 131 56 17 137 6 182 -26z m2304 22
c76 -32 122 -102 122 -185 0 -145 -145 -241 -275 -181 -52 23 -101 80 -115
131 -41 154 121 296 268 235z"/>
<path d="M1655 2144 c-190 -42 -373 -183 -460 -354 -51 -101 -70 -187 -69
-315 0 -102 5 -132 27 -200 36 -108 89 -195 168 -274 79 -79 166 -132 274
-168 69 -23 96 -27 205 -27 109 0 136 4 205 27 109 36 196 90 274 168 79 80
132 166 168 274 23 69 27 96 27 205 0 109 -4 136 -27 205 -92 278 -332 459
-622 471 -67 2 -123 -1 -170 -12z m264 -159 c187 -44 342 -199 386 -386 88
-373 -251 -712 -624 -624 -187 44 -342 199 -386 386 -88 373 251 712 624 624z"/>
<path d="M1625 1855 c-22 -21 -25 -33 -25 -100 l0 -75 -75 0 c-67 0 -79 -3
-100 -25 -24 -23 -25 -28 -25 -175 0 -147 1 -152 25 -175 21 -22 33 -25 100
-25 l75 0 0 -75 c0 -67 3 -79 25 -100 23 -24 28 -25 175 -25 147 0 152 1 175
25 22 21 25 33 25 100 l0 75 75 0 c67 0 79 3 100 25 24 23 25 28 25 175 0 147
-1 152 -25 175 -21 22 -33 25 -100 25 l-75 0 0 75 c0 67 -3 79 -25 100 -23 24
-28 25 -175 25 -147 0 -152 -1 -175 -25z m215 -210 c0 -67 3 -79 25 -100 21
-22 33 -25 100 -25 l75 0 0 -40 0 -40 -75 0 c-67 0 -79 -3 -100 -25 -22 -21
-25 -33 -25 -100 l0 -75 -40 0 -40 0 0 75 c0 67 -3 79 -25 100 -21 22 -33 25
-100 25 l-75 0 0 40 0 40 75 0 c67 0 79 3 100 25 22 21 25 33 25 100 l0 75 40
0 40 0 0 -75z"/>
<path d="M3305 1815 c-25 -24 -25 -26 -25 -215 0 -189 0 -191 25 -215 l24 -25
301 0 301 0 24 25 c14 13 25 36 25 50 0 14 -19 101 -42 192 -31 124 -48 173
-64 190 -23 23 -26 23 -284 23 l-261 0 -24 -25z m459 -152 c3 -10 10 -38 16
-63 6 -25 13 -53 16 -62 5 -17 -8 -18 -175 -18 l-181 0 0 80 0 80 159 0 c143
0 160 -2 165 -17z"/>
</g>
</svg>
