<?xml version="1.0" standalone="no"?>
<!DOCTYPE svg PUBLIC "-//W3C//DTD SVG 20010904//EN"
 "http://www.w3.org/TR/2001/REC-SVG-20010904/DTD/svg10.dtd">
<svg version="1.0" xmlns="http://www.w3.org/2000/svg"
 width="512.000000pt" height="512.000000pt" viewBox="0 0 512.000000 512.000000"
 preserveAspectRatio="xMidYMid meet">

<g transform="translate(0.000000,512.000000) scale(0.100000,-0.100000)"
fill="#472B74" stroke="none">
<path d="M3288 5100 c-23 -17 -26 -28 -30 -118 -5 -84 -12 -113 -46 -198 -54
-135 -66 -193 -66 -304 1 -108 20 -194 65 -290 48 -102 73 -130 118 -130 75 0
94 62 43 145 -80 132 -99 303 -48 445 69 191 78 226 83 322 6 94 5 97 -20 122
-31 31 -65 33 -99 6z"/>
<path d="M3999 5101 c-22 -18 -24 -26 -22 -93 2 -90 32 -206 72 -285 16 -33
172 -275 347 -539 174 -263 325 -497 335 -519 17 -38 19 -78 19 -682 l0 -643
-38 0 c-52 0 -123 46 -148 96 -18 37 -19 71 -24 559 -5 508 -6 521 -26 560
-12 22 -149 178 -304 348 -264 286 -285 307 -316 307 -44 0 -74 -30 -74 -72 0
-29 29 -64 226 -278 344 -373 344 -373 344 -421 0 -33 -6 -47 -34 -75 -28 -28
-42 -34 -76 -34 -49 0 -45 -4 -445 392 -199 196 -235 228 -261 228 -39 0 -74
-36 -74 -76 0 -25 44 -73 312 -340 196 -194 328 -318 353 -330 42 -20 159 -27
202 -11 l22 8 3 -378 3 -378 33 -67 c57 -116 154 -180 282 -186 65 -3 79 -1
110 20 19 13 45 43 58 68 l23 45 -3 675 c-3 664 -3 676 -24 720 -12 25 -169
268 -349 540 -180 272 -338 518 -350 545 -28 63 -42 122 -51 208 -6 56 -11 71
-32 87 -31 25 -63 25 -93 1z"/>
<path d="M1440 4886 c-57 -15 -34 0 -600 -375 -261 -172 -497 -324 -525 -336
-63 -28 -122 -42 -208 -51 -56 -6 -71 -11 -87 -32 -33 -42 -25 -84 22 -108 54
-28 241 7 359 67 32 15 272 171 535 345 264 174 497 325 519 335 38 17 78 19
683 19 l642 0 0 -38 c0 -52 -46 -123 -96 -148 -37 -18 -71 -19 -559 -24 -508
-5 -521 -6 -560 -26 -22 -12 -178 -149 -348 -304 -286 -264 -307 -285 -307
-316 0 -44 30 -74 73 -74 28 0 66 31 319 264 158 145 300 274 314 285 43 34
99 28 140 -13 28 -28 34 -42 34 -76 0 -40 -6 -48 -149 -198 -82 -86 -272 -279
-422 -427 -237 -234 -283 -275 -339 -302 -94 -45 -143 -56 -245 -56 -73 0
-105 5 -165 27 -192 69 -226 78 -322 83 -94 6 -97 5 -122 -20 -31 -31 -33 -65
-6 -99 17 -23 28 -26 118 -30 84 -5 113 -12 198 -46 135 -54 193 -66 304 -66
116 1 197 21 310 75 84 41 92 48 516 473 283 283 438 445 450 471 20 42 26
160 11 202 l-8 22 378 3 378 3 67 33 c116 57 180 154 186 282 3 65 1 79 -20
110 -13 19 -43 45 -68 58 l-44 22 -656 -1 c-484 0 -667 -4 -700 -13z"/>
<path d="M1900 3589 c-493 -56 -857 -542 -766 -1023 39 -205 100 -311 289
-503 125 -127 144 -143 174 -143 42 0 73 30 73 71 0 26 -21 53 -139 174 -127
130 -144 152 -185 237 -100 208 -101 420 -1 623 217 441 760 555 1128 237 81
-70 103 -69 196 12 273 236 682 224 949 -27 185 -176 266 -427 217 -675 -18
-85 -78 -222 -127 -286 -17 -22 -281 -292 -587 -598 l-556 -558 -340 340
c-371 371 -379 377 -429 327 -54 -54 -59 -48 351 -459 371 -371 378 -378 418
-378 39 0 47 7 623 583 321 320 603 608 628 639 205 264 240 628 89 928 -41
82 -81 137 -154 214 -170 177 -379 267 -620 267 -211 1 -353 -49 -556 -195 -8
-6 -33 6 -76 36 -175 124 -389 180 -599 157z"/>
<path d="M2225 3134 c-43 -22 -84 -63 -108 -109 -33 -61 -31 -193 3 -259 34
-65 86 -107 144 -113 66 -8 112 4 153 40 129 113 105 366 -41 436 -50 25 -110
27 -151 5z m104 -160 c42 -53 18 -174 -34 -174 -53 0 -75 131 -30 180 24 27
39 25 64 -6z"/>
<path d="M2755 3131 c-80 -37 -128 -123 -129 -231 0 -82 17 -132 62 -182 47
-52 80 -68 145 -68 75 0 135 39 171 112 69 141 27 305 -94 366 -53 27 -101 28
-155 3z m111 -156 c40 -61 17 -170 -36 -170 -56 0 -77 123 -29 174 26 28 45
27 65 -4z"/>
<path d="M299 2907 c-19 -12 -44 -42 -56 -67 -22 -43 -23 -53 -23 -341 0 -330
0 -332 67 -345 26 -5 37 -1 57 19 l26 26 0 291 0 290 37 0 c48 0 115 -40 145
-87 l23 -38 5 -525 c5 -513 5 -526 26 -565 12 -22 149 -178 304 -348 264 -286
285 -307 316 -307 44 0 74 30 74 73 0 28 -32 67 -265 320 -146 159 -274 300
-285 314 -33 42 -27 98 14 139 28 28 42 34 76 34 40 0 48 -6 198 -149 86 -82
279 -272 427 -422 234 -237 275 -283 302 -339 45 -94 56 -143 56 -245 0 -73
-5 -105 -27 -165 -69 -192 -78 -226 -83 -322 -6 -94 -5 -97 20 -122 31 -31 65
-33 99 -6 23 17 26 28 30 118 5 84 12 113 46 198 54 135 66 193 66 304 -1 116
-21 197 -75 310 -41 84 -48 92 -473 516 -283 283 -445 438 -471 450 -42 20
-160 26 -202 11 l-22 -8 -3 378 -3 378 -33 67 c-59 120 -166 188 -296 188 -49
0 -71 -5 -97 -23z"/>
<path d="M1773 2720 c-79 -41 -123 -126 -123 -239 0 -82 35 -159 93 -205 35
-28 46 -31 112 -31 67 0 76 3 112 31 101 82 123 252 47 370 -56 86 -156 117
-241 74z m112 -150 c45 -49 23 -180 -30 -180 -52 0 -76 121 -34 174 25 31 40
33 64 6z"/>
<path d="M3192 2719 c-102 -51 -150 -189 -113 -321 15 -53 68 -121 112 -143
41 -22 122 -19 170 5 43 23 92 90 109 150 34 122 -23 265 -125 311 -53 24
-101 24 -153 -2z m119 -161 c37 -59 10 -168 -41 -168 -55 0 -73 136 -24 185
24 23 42 18 65 -17z"/>
<path d="M2495 2592 c-22 -16 -124 -114 -226 -218 -213 -217 -239 -256 -247
-369 -16 -266 281 -428 503 -275 l40 28 30 -24 c44 -35 128 -64 189 -64 128 0
232 64 288 177 29 59 33 77 33 143 -1 123 -18 149 -273 403 -197 197 -222 219
-258 224 -32 4 -46 0 -79 -25z m446 -537 c24 -52 24 -89 -2 -142 -39 -80 -144
-116 -222 -77 -18 9 -51 34 -74 55 -67 62 -92 57 -215 -42 -37 -30 -114 -37
-162 -14 -71 34 -107 109 -91 192 6 32 35 67 198 231 l192 192 178 -177 c109
-109 186 -194 198 -218z"/>
<path d="M4385 1969 c-79 -12 -146 -34 -230 -77 -63 -32 -113 -79 -501 -466
-283 -283 -438 -445 -450 -471 -20 -42 -26 -160 -11 -202 l8 -22 -378 -3 -378
-3 -60 -28 c-120 -56 -195 -172 -195 -301 0 -78 25 -121 90 -154 l45 -23 675
3 c624 3 678 4 715 21 22 10 129 77 237 149 206 136 218 148 204 204 -8 31
-60 56 -93 43 -12 -4 -97 -58 -189 -120 -92 -61 -186 -120 -208 -130 -39 -17
-79 -19 -683 -19 l-643 0 0 37 c0 48 40 115 87 145 l38 23 525 5 c513 5 526 5
565 26 22 12 178 149 348 304 287 264 307 284 307 316 0 44 -30 74 -72 74 -29
0 -64 -29 -278 -226 -373 -344 -373 -344 -421 -344 -33 0 -47 6 -75 34 -28 28
-34 42 -34 76 0 40 6 48 149 198 82 86 272 279 422 427 237 234 283 275 339
302 94 45 143 56 245 56 73 0 105 -5 165 -27 192 -69 226 -78 322 -83 94 -6
97 -5 122 20 31 31 33 65 6 99 -17 23 -28 26 -118 30 -84 5 -113 12 -198 46
-54 21 -119 44 -144 50 -68 16 -188 22 -255 11z"/>
<path d="M244 1925 l-26 -26 4 -227 c3 -206 5 -231 24 -272 12 -25 164 -261
339 -525 175 -264 331 -505 347 -535 35 -66 55 -140 64 -232 5 -57 11 -72 32
-88 42 -33 84 -25 108 22 28 54 -7 241 -67 360 -16 31 -167 265 -335 520 -169
255 -320 487 -336 517 l-28 53 0 207 c0 204 0 208 -23 229 -31 29 -72 28 -103
-3z"/>
<path d="M4924 1136 c-146 -28 -191 -49 -426 -204 -117 -78 -181 -126 -188
-143 -21 -48 16 -99 72 -99 13 0 108 56 212 125 206 136 276 167 414 181 61 5
76 11 92 32 25 31 25 63 2 92 -23 28 -83 34 -178 16z"/>
</g>
</svg>
