<?xml version="1.0" standalone="no"?>
<!DOCTYPE svg PUBLIC "-//W3C//DTD SVG 20010904//EN"
 "http://www.w3.org/TR/2001/REC-SVG-20010904/DTD/svg10.dtd">
<svg version="1.0" xmlns="http://www.w3.org/2000/svg"
 width="512.000000pt" height="512.000000pt" viewBox="0 0 512.000000 512.000000"
 preserveAspectRatio="xMidYMid meet">

<g transform="translate(0.000000,512.000000) scale(0.100000,-0.100000)"
fill="#472B74" stroke="none">
<path d="M1800 4919 c-232 -60 -425 -219 -526 -434 -53 -113 -76 -213 -76
-335 0 -117 15 -203 53 -298 61 -154 86 -182 697 -794 542 -543 579 -578 612
-578 32 0 69 35 593 558 307 306 580 586 608 622 147 195 197 441 139 685 -20
82 -93 225 -152 299 -152 189 -376 296 -617 296 -207 -1 -383 -64 -522 -188
l-49 -44 -49 44 c-92 82 -222 146 -349 173 -98 21 -270 18 -362 -6z m349 -154
c98 -24 208 -86 299 -171 106 -98 118 -98 217 -6 140 130 259 182 430 189 128
6 210 -10 309 -58 277 -135 418 -447 336 -745 -43 -160 -42 -159 -636 -754
l-544 -545 -544 545 c-409 410 -551 559 -575 602 -180 322 -64 719 260 888 42
22 103 46 136 54 77 19 233 19 312 1z"/>
<path d="M2345 4375 c-24 -23 -25 -29 -25 -160 l0 -135 -135 0 c-131 0 -137
-1 -160 -25 -25 -24 -25 -26 -25 -215 0 -189 0 -191 25 -215 23 -24 29 -25
160 -25 l135 0 0 -135 c0 -131 1 -137 25 -160 24 -25 26 -25 215 -25 189 0
191 0 215 25 24 23 25 29 25 160 l0 135 135 0 c131 0 137 1 160 25 25 24 25
26 25 215 0 189 0 191 -25 215 -23 24 -29 25 -160 25 l-135 0 0 135 c0 131 -1
137 -25 160 -24 25 -26 25 -215 25 -189 0 -191 0 -215 -25z m295 -270 c0 -131
1 -137 25 -160 23 -24 29 -25 160 -25 l135 0 0 -80 0 -80 -135 0 c-131 0 -137
-1 -160 -25 -24 -23 -25 -29 -25 -160 l0 -135 -80 0 -80 0 0 135 c0 131 -1
137 -25 160 -23 24 -29 25 -160 25 l-135 0 0 80 0 80 135 0 c131 0 137 1 160
25 24 23 25 29 25 160 l0 135 80 0 80 0 0 -135z"/>
<path d="M559 3997 c-127 -48 -205 -149 -216 -281 -5 -58 -8 -63 -54 -104 -64
-57 -100 -133 -106 -220 -4 -62 10 -118 182 -756 130 -485 194 -705 213 -740
22 -39 102 -116 341 -331 211 -188 320 -293 334 -320 17 -33 22 -62 25 -162 4
-109 2 -123 -12 -123 -9 0 -28 -11 -41 -25 l-25 -24 0 -351 0 -351 25 -24 24
-25 591 0 591 0 24 25 25 24 0 351 0 351 -25 24 c-13 14 -31 25 -39 25 -13 0
-15 60 -18 443 -4 430 -4 444 -27 512 -48 147 -139 280 -246 363 -45 35 -720
436 -778 463 -21 9 -46 75 -201 522 -97 282 -186 534 -198 561 -50 108 -154
177 -278 183 -47 2 -89 -2 -111 -10z m171 -167 c21 -11 47 -32 58 -47 10 -16
91 -237 179 -493 89 -256 164 -472 168 -482 5 -13 -4 -19 -46 -32 -29 -8 -54
-14 -55 -13 -1 1 -55 164 -119 361 -64 197 -124 375 -135 395 -41 80 -147 156
-236 168 -45 6 -46 7 -40 37 13 66 83 126 148 126 21 0 56 -9 78 -20z m-160
-320 c21 -11 47 -32 58 -47 10 -16 77 -207 147 -425 l128 -397 -23 -52 c-19
-45 -22 -66 -18 -134 5 -94 38 -166 99 -219 54 -46 530 -316 557 -316 13 0 34
11 47 25 32 31 33 78 3 108 -13 12 -124 81 -248 151 -124 71 -236 139 -248
150 -40 35 -55 74 -50 131 8 94 75 152 167 143 38 -4 114 -44 431 -229 432
-252 482 -290 552 -425 65 -123 68 -150 68 -606 l0 -408 -399 0 -399 0 -4 133
c-6 155 -23 212 -90 294 -24 29 -149 145 -278 259 -305 268 -339 301 -360 349
-10 22 -98 337 -195 700 -188 699 -189 707 -147 764 51 69 128 89 202 51z
m1750 -2950 l0 -240 -480 0 -480 0 0 240 0 240 480 0 480 0 0 -240z"/>
<path d="M4360 3994 c-60 -22 -123 -69 -156 -115 -30 -44 -49 -94 -254 -684
l-153 -440 -266 -155 c-414 -240 -497 -291 -552 -336 -103 -84 -183 -205 -230
-349 -23 -68 -23 -81 -27 -512 -3 -384 -5 -443 -18 -443 -8 0 -26 -11 -39 -25
l-25 -24 0 -351 0 -351 25 -24 24 -25 591 0 591 0 24 25 25 24 0 351 0 351
-25 24 c-13 14 -32 25 -41 25 -14 0 -16 14 -12 123 3 101 7 129 25 163 15 28
116 125 326 312 300 267 327 294 361 360 10 19 99 336 198 705 162 598 182
681 182 752 1 68 -3 88 -27 137 -16 33 -49 76 -76 100 -46 41 -49 46 -54 106
-10 114 -75 209 -179 263 -57 30 -175 36 -238 13z m180 -166 c42 -29 68 -65
76 -104 6 -30 5 -31 -40 -37 -93 -13 -194 -84 -235 -166 -11 -21 -72 -200
-136 -397 -64 -197 -118 -360 -119 -361 -1 -1 -26 5 -55 13 -42 13 -51 19 -46
32 4 10 79 224 166 477 88 253 168 473 178 490 40 69 148 96 211 53z m160
-320 c46 -32 71 -68 77 -114 4 -30 -35 -186 -167 -679 -94 -352 -178 -662
-187 -689 -21 -66 -49 -94 -366 -375 -159 -141 -286 -261 -305 -289 -53 -78
-72 -155 -72 -288 l0 -114 -400 0 -400 0 0 408 c0 456 3 483 67 606 69 133
121 173 554 425 419 245 436 252 513 216 98 -47 116 -188 34 -261 -12 -11
-124 -79 -248 -150 -124 -71 -235 -139 -247 -151 -31 -30 -30 -77 2 -108 13
-14 34 -25 47 -25 37 0 515 278 569 331 65 64 92 139 86 239 -2 44 -12 91 -22
113 l-19 37 124 383 c67 210 132 400 144 422 41 78 148 109 216 63z m-940
-2948 l0 -240 -480 0 -480 0 0 240 0 240 480 0 480 0 0 -240z"/>
</g>
</svg>
