<svg width="460" height="526" viewBox="0 0 460 526" fill="none" xmlns="http://www.w3.org/2000/svg">
<path d="M225.6 0.736346C224.8 1.00301 196.8 29.6697 163.6 64.203C130.533 98.8697 89.8667 141.136 73.3333 158.336C56.8 175.403 33.6 199.67 21.7333 212.203L0 234.87V377.403C0 518.07 0 519.803 2.66667 522.47C5.33333 525.136 7.06667 525.136 87.2 525.136C168.8 525.136 168.933 525.136 172.667 522.336C176.933 518.87 176.667 514.87 171.333 507.003C159.333 489.536 149.333 459.803 149.333 442.07C149.333 433.803 151.867 423.803 156.133 414.87C160 406.87 186.667 379.803 190.8 379.803C197.6 379.803 214 395.27 219.467 406.87C224.4 417.67 225.733 426.736 224.933 445.136C224.133 465.67 220.4 479.403 210 500.736C206 509.003 202.667 516.603 202.667 517.67C202.667 518.87 203.867 521.003 205.333 522.47C207.733 524.87 209.733 525.136 223.067 525.136C231.2 525.136 238.667 524.603 239.467 524.07C241.2 522.87 244 517.936 244 515.803C244 512.736 237.467 507.803 233.467 507.803C231.333 507.803 229.2 507.27 228.8 506.603C228.4 505.936 229.733 501.27 231.733 496.336C240.267 475.536 244.933 449.003 243.2 429.803C241.2 405.403 230.667 385.27 212.667 370.87C209.733 368.603 207.6 366.47 208 366.07C208.4 365.803 215.467 360.87 223.733 355.136C241.6 342.87 253.467 332.203 258.133 324.47C264.8 313.136 264.933 294.47 258.4 279.536C252 264.603 242.533 262.736 222.933 272.47C213.6 277.136 209.467 278.47 204.4 278.47C194.133 278.47 193.6 277.536 193.2 259.803C193.067 251.403 193.067 243.403 193.2 242.203C193.2 240.87 196.8 235.803 201.2 230.736C210.533 219.803 213.333 214.736 213.333 208.47C213.333 202.87 213.867 202.87 225.467 206.603C239.2 211.136 250.4 217.27 260.533 225.936C300.933 260.336 311.6 303.536 295.733 369.136C294.267 375.403 289.6 392.736 285.333 407.803C272.267 454.203 268 476.336 268 497.27C268.133 513.136 269.467 521.003 272.8 523.403C274.267 524.47 279.6 525.136 287.333 525.136C301.333 525.136 305.333 523.403 305.333 517.003C305.333 511.003 301.2 507.803 293.467 507.803C288.8 507.803 286.667 507.27 286.133 505.67C284.8 502.203 285.2 491.67 287.333 476.336C290 457.936 292.267 448.07 303.867 407.67C318 357.936 320.533 344.07 320.533 315.803C320.667 290.336 318.667 279.536 310.667 261.67C301.6 241.403 280.4 216.336 261.6 203.803L258.667 201.803L262.667 192.07C267.733 180.07 270.133 171.27 278.8 133.136C286 101.003 294.4 70.4697 296 70.4697C297.867 70.4697 300 73.9363 304 83.803C310.133 98.8697 309.6 98.4697 329.067 98.4697H345.6L354.933 107.403L364.267 116.47L388.4 116.87C401.733 117.136 413.2 117.803 413.867 118.47C415.6 120.203 408.133 134.07 401.2 141.67C397.067 146.336 392 149.936 387.067 152.203C379.6 155.536 359.867 159.803 351.867 159.803C347.2 159.803 342.667 163.936 342.667 168.336C342.667 170.07 345.333 177.403 348.533 184.736C357.467 204.736 362 219.27 367.467 244.47C370.4 257.803 370.933 305.27 368.267 317.803C364.267 336.603 361.867 346.07 354.4 372.47C343.333 411.936 340.4 425.003 336.667 451.003C332.8 478.736 335.067 516.87 340.933 522.736C343.067 524.87 348.133 525.003 398.4 525.27C452.533 525.536 453.6 525.403 456.267 522.736C459.067 519.936 459.067 519.536 459.2 382.203C459.333 306.47 459.067 242.203 458.533 239.536C457.6 233.536 456.267 232.07 427.333 202.07L404.133 177.936L396.4 180.47C386.533 183.67 385.867 184.336 388.4 187.803C390.4 190.736 393.867 194.336 426.4 227.936L441.333 243.536V374.07C441.333 473.803 440.933 505.003 439.733 506.203C437.733 508.203 359.067 508.47 356 506.47C354.4 505.403 354 501.003 354 480.203C354.133 446.47 356 436.47 372.667 377.136C386.4 328.47 388.4 316.47 388.533 282.47C388.667 259.803 388.133 251.27 386.267 241.803C382.933 225.403 376.8 204.203 371.067 189.936C368.533 183.536 366.933 177.67 367.6 177.136C368.133 176.603 373.2 175.136 378.667 173.803C406 167.536 421.467 153.003 432.667 123.27C436.8 112.203 437.067 105.136 433.2 101.67C430.667 99.403 427.733 99.1364 401.6 98.7364L372.667 98.3364L363.867 89.6697L354.933 81.1363H339.733C326.8 81.1363 324.133 80.7363 322.4 78.7363C321.333 77.5363 316.933 68.3363 312.8 58.4697C308.533 48.603 303.867 39.1363 302.4 37.403C297.067 31.803 290.4 34.3363 286.533 43.2697C285.067 46.4697 283.067 49.1363 282.133 49.1363C281.2 49.1363 276.933 45.403 272.667 40.7363C252.267 19.003 236.4 3.00301 234 1.53635C231.2 -0.196988 228.533 -0.463655 225.6 0.736346ZM252.533 45.9363C264.4 58.203 274.533 69.003 275.2 70.0697C275.867 71.2697 275.2 74.8697 273.6 79.5363C271.067 86.7364 263.733 116.07 260 133.803C256.667 150.203 250.8 171.536 247.067 181.136C242.533 192.736 242.667 192.736 224.667 188.07C208.933 183.803 194.4 182.87 190 185.67C185.6 188.603 185.6 193.936 190.133 199.936C196.667 208.736 196.667 208.203 187.867 218.47C175.733 232.603 174.8 235.67 175.067 257.403C175.2 270.736 174.8 276.07 173.467 277.67C172.533 278.736 160.267 289.003 146.133 300.336C94.4 342.07 82.8 354.736 73.3333 379.936C61.3333 412.336 65.6 459.27 84 495.936C86.9333 501.536 88.8 506.47 88.4 507.003C87.8667 507.403 72.1333 507.803 53.2 507.803C25.8667 507.803 18.8 507.403 18.2667 506.07C17.2 503.136 17.2 250.203 18.4 245.67C19.0667 242.736 27.7333 232.736 48 211.67C63.7333 195.27 90.8 167.136 108.133 149.136C125.333 131.136 153.6 101.936 170.8 84.0697C188 66.203 207.733 45.403 214.667 37.803C221.6 30.203 228.133 23.9363 229.2 23.9363C230.267 23.803 240.667 33.803 252.533 45.9363ZM243.867 291.136C247.467 305.536 244.267 315.936 232.933 325.803C229.067 329.136 217.6 337.67 207.333 344.736L188.667 357.536L176.667 355.136C158.133 351.536 142.133 351.003 138 353.67C133.867 356.336 133.467 362.603 137.333 366.47C139.333 368.47 141.867 369.136 147.067 369.27C154.933 369.27 166.267 371.003 167.6 372.203C168 372.736 163.333 378.336 157.2 384.736C143.867 398.603 138.267 407.803 134.667 421.936C129.067 443.936 133.467 473.536 146.267 499.003C148.933 504.203 149.2 505.67 147.733 506.603C144.8 508.47 114.133 508.07 111.733 506.07C105.6 501.136 93.0667 473.136 88 452.47C83.7333 435.27 83.6 410.07 87.8667 395.136C92.8 377.27 98.9333 367.536 114.667 351.67C122.4 343.936 135.333 332.336 143.333 325.936C151.467 319.536 160.667 312.07 163.867 309.403C167.2 306.736 173.067 301.803 176.933 298.603L184.133 292.736L191.733 294.603C205.867 298.07 213.867 297.136 227.333 290.203C233.867 286.87 240 284.336 240.8 284.736C241.733 285.003 243.067 287.936 243.867 291.136Z" fill="black" fill-opacity="0.05"/>
</svg>
